<svg width="74" height="32" viewBox="0 0 74 32" fill="none" xmlns="http://www.w3.org/2000/svg">
<g clip-path="url(#clip0_41_2)">
<path d="M56.1054 20.71L55.542 19.5223C55.545 19.4773 55.5472 19.4321 55.5472 19.3867C55.5472 18.0403 54.1716 16.7994 51.8573 15.8058V16.6319C51.6316 16.5408 51.3967 16.452 51.1519 16.3663V15.9811C47.8444 14.767 42.9207 13.9967 37.4206 13.9967C32.6152 13.9967 28.2493 14.5847 25.017 15.543V16.8847H25.0169V15.2607C21.7055 16.3319 19.6524 17.8199 19.6524 19.4652C19.6524 19.7246 19.7038 19.98 19.8025 20.2306L19.4652 20.8418C19.4652 20.8418 19.1949 21.1986 19.6709 21.9515C20.0906 22.6154 22.1931 25.214 23.3028 26.5749C23.7794 27.2725 24.1027 27.7022 24.1309 27.6607C24.1755 27.5948 23.8345 26.285 22.888 24.7906C22.4462 23.9881 21.9188 22.9246 21.6021 22.1392C22.4861 22.7087 27.6795 25.3705 38.2729 25.3597C49.0993 25.3487 53.9116 21.8993 54.4398 21.4297C54.2552 22.1844 53.6246 23.7113 53.1217 24.785C52.2954 26.3207 51.9961 27.6577 52.0346 27.7238C52.059 27.7655 52.3409 27.3229 52.7568 26.6055C53.7242 25.2023 55.5576 22.5234 55.9239 21.8411C56.339 21.0675 56.1054 20.71 56.1054 20.71Z" fill="url(#paint0_linear_41_2)"/>
<path d="M51.8352 19.6644C51.8352 19.6644 54.3169 19.5473 57.5767 16.175L58.0386 15.1309C58.0386 15.1309 52.9791 10.0082 60.8441 6.47213C60.8441 6.47213 60.1555 7.61745 60.3576 12.0425C60.3576 12.0425 62.7289 11.2042 63.4242 7.2954C63.4242 7.2954 66.8831 11.9373 59.6675 16.2908C59.6675 16.2908 56.2823 21.8145 51.5099 21.2854L51.8352 19.6644Z" fill="#F74C00"/>
<path d="M21.5905 18.9222C21.5594 18.9222 21.5288 18.9245 21.4984 18.927C20.2742 18.6433 16.833 17.7307 15.9234 16.2497C15.9234 16.2497 20.554 10.8883 13.3166 7.46131L14.1593 13.393C14.1593 13.393 11.9282 11.8754 11.4467 8.57908C11.4467 8.57908 6.01366 12.5925 13.8447 16.4391C13.8447 16.4391 14.5549 19.1555 21.3743 21.3228L21.3793 21.3021C21.4479 21.3151 21.5182 21.3228 21.5905 21.3228C22.2349 21.3228 22.7573 20.7855 22.7573 20.1224C22.7573 19.4595 22.2349 18.9222 21.5905 18.9222Z" fill="#0CA3AA"/>
<path d="M59.3763 20.7034L55.6736 17.9273C55.6388 17.8038 55.604 17.6802 55.5681 17.5577L56.7843 15.7644C56.9085 15.582 56.9335 15.3448 56.8529 15.1368C56.7721 14.9298 56.5955 14.7814 56.3867 14.7451L54.3303 14.3898C54.2505 14.2243 54.167 14.0613 54.0832 13.8997L54.9473 11.8863C55.0361 11.6812 55.0175 11.4429 54.8996 11.2567C54.7821 11.0697 54.5829 10.9604 54.3705 10.9689L52.2833 11.0461C52.1753 10.9029 52.0655 10.761 51.9535 10.6216L52.4332 8.4636C52.4818 8.24453 52.4204 8.01506 52.2705 7.85589C52.1214 7.69729 51.9047 7.63159 51.6987 7.68304L49.6658 8.19171C49.5342 8.0733 49.4003 7.95645 49.265 7.84188L49.3381 5.62643C49.346 5.40218 49.2432 5.18905 49.0669 5.06455C48.8906 4.93934 48.667 4.92053 48.4742 5.01354L46.5777 5.93128C46.425 5.84208 46.2714 5.75378 46.1161 5.66828L45.781 3.48513C45.747 3.26397 45.6072 3.07606 45.4114 2.99027C45.2161 2.90397 44.9926 2.93194 44.8212 3.06323L43.1304 4.35452C42.9638 4.29823 42.7966 4.24432 42.6274 4.19269L41.8986 2.1224C41.8245 1.91136 41.6536 1.75637 41.4451 1.71276C41.2375 1.66958 41.0238 1.74278 40.8798 1.90656L39.4565 3.52721C39.2846 3.50712 39.1123 3.48874 38.9397 3.47349L37.8407 1.58888C37.7294 1.39803 37.5328 1.28184 37.3209 1.28184C37.1095 1.28184 36.9126 1.39803 36.802 1.58888L35.7028 3.47349C35.5301 3.48874 35.3571 3.50712 35.1854 3.52721L33.7621 1.90656C33.6179 1.74278 33.4035 1.66958 33.1964 1.71276C32.9883 1.75694 32.8171 1.91136 32.7434 2.1224L32.014 4.19269C31.8451 4.24432 31.6778 4.29861 31.511 4.35452L29.8207 3.06323C29.6488 2.93147 29.4251 2.90359 29.2295 2.99027C29.0344 3.07606 28.8941 3.26397 28.8603 3.48513L28.5249 5.66828C28.3699 5.75378 28.2163 5.8416 28.0632 5.93128L26.1669 5.01354C25.9743 4.92015 25.7495 4.93934 25.574 5.06455C25.398 5.18905 25.295 5.40218 25.3029 5.62643L25.3758 7.84188C25.2408 7.95645 25.1072 8.0733 24.9749 8.19171L22.9424 7.68304C22.736 7.63202 22.5195 7.69729 22.37 7.85589C22.2197 8.01506 22.1588 8.24453 22.2071 8.4636L22.6858 10.6216C22.5748 10.7615 22.4649 10.9029 22.3571 11.0461L20.27 10.9689C20.0594 10.9625 19.8584 11.0697 19.7407 11.2567C19.6227 11.4429 19.6049 11.6812 19.6926 11.8863L20.5573 13.8997C20.4733 14.0613 20.3899 14.2243 20.3095 14.3898L18.2533 14.7451C18.0442 14.7809 17.8682 14.9292 17.7869 15.1368C17.7062 15.3448 17.7324 15.582 17.8557 15.7644L19.0721 17.5577C19.0627 17.5894 19.054 17.6213 19.0447 17.653L15.6055 21.3716C15.6055 21.3716 15.0784 21.792 15.8457 22.7802C16.5224 23.6518 19.9968 27.1072 21.8317 28.9174C22.6067 29.8364 23.1376 30.4055 23.1931 30.3563C23.2806 30.2782 22.821 28.6061 21.2946 26.6442C20.1178 24.8841 18.5907 22.1769 18.9488 21.8649C18.9488 21.8649 19.3561 21.3385 20.1734 20.9597C20.2033 20.984 20.1425 20.9356 20.1734 20.9597C20.1734 20.9597 37.4212 29.058 53.4201 21.0967C55.2477 20.763 56.3542 21.7595 56.3542 21.7595C56.7357 21.9847 55.7477 24.7684 54.9352 26.611C53.8302 28.7034 53.6681 30.3361 53.7618 30.3927C53.821 30.4286 54.223 29.8059 54.7965 28.8149C56.2116 26.8079 58.8866 22.9818 59.3763 22.0524C59.9314 20.9988 59.3763 20.7034 59.3763 20.7034Z" fill="url(#paint1_linear_41_2)"/>
<path d="M40.5931 16.483C40.5931 16.483 42.3168 14.562 44.0404 16.483C44.0404 16.483 45.3948 19.0445 44.0404 20.3251C44.0404 20.3251 41.8244 22.1182 40.5931 20.3251C40.5931 20.3251 39.1158 18.9163 40.5931 16.483Z" fill="black"/>
<path d="M42.5888 17.1957C42.5888 17.9437 42.1557 18.5501 41.6213 18.5501C41.0871 18.5501 40.6539 17.9437 40.6539 17.1957C40.6539 16.4476 41.0871 15.8411 41.6213 15.8411C42.1557 15.8411 42.5888 16.4476 42.5888 17.1957Z" fill="white"/>
<path d="M32.9003 15.9585C32.9003 15.9585 35.8568 14.6261 36.6638 17.6002C36.6638 17.6002 37.5092 21.0668 34.2358 21.2624C34.2358 21.2624 30.0617 20.4441 32.9003 15.9585Z" fill="black"/>
<path d="M34.3852 17.2448C34.3852 18.0161 33.9385 18.6417 33.3875 18.6417C32.8366 18.6417 32.3898 18.0161 32.3898 17.2448C32.3898 16.4732 32.8366 15.8478 33.3875 15.8478C33.9385 15.8478 34.3852 16.4732 34.3852 17.2448Z" fill="white"/>
<path d="M36.6881 22.4744L40.4586 22.1664C40.4586 22.1664 40.3308 22.7842 39.8389 23.2479C39.8389 23.2479 38.542 24.6953 37.0542 23.1276C37.0542 23.1276 36.8107 22.8602 36.6881 22.4744Z" fill="black"/>
<path d="M59 19.6V18.4C59 18.1791 59.1791 18 59.4 18H64.6C64.8209 18 65 17.8209 65 17.6V16.1116C65 15.8231 65.2961 15.6295 65.5603 15.7451L72.1624 18.6335C72.4819 18.7733 72.4819 19.2267 72.1624 19.3665L65.5603 22.2549C65.2961 22.3705 65 22.1769 65 21.8884V20.4C65 20.1791 64.8209 20 64.6 20H59.4C59.1791 20 59 19.8209 59 19.6Z" fill="#F74C00"/>
<path d="M15 20.1V18.9C15 18.6791 14.8209 18.5 14.6 18.5H9.4C9.17909 18.5 9 18.3209 9 18.1V16.6116C9 16.3231 8.70395 16.1295 8.43967 16.2451L1.83763 19.1335C1.51807 19.2733 1.51807 19.7267 1.83763 19.8665L8.43967 22.7549C8.70395 22.8705 9 22.6769 9 22.3884V20.9C9 20.6791 9.17909 20.5 9.4 20.5H14.6C14.8209 20.5 15 20.3209 15 20.1Z" fill="#0CA3AA"/>
</g>
<defs>
<linearGradient id="paint0_linear_41_2" x1="19.3888" y1="20.8616" x2="56.1709" y2="20.8616" gradientUnits="userSpaceOnUse">
<stop stop-color="#0CA3AA"/>
<stop offset="1" stop-color="#A52B00"/>
</linearGradient>
<linearGradient id="paint1_linear_41_2" x1="15.429" y1="15.838" x2="59.623" y2="15.838" gradientUnits="userSpaceOnUse">
<stop stop-color="#0CA3AA"/>
<stop offset="1" stop-color="#F74C00"/>
</linearGradient>
<clipPath id="clip0_41_2">
<rect width="74" height="32" fill="white"/>
</clipPath>
</defs>
</svg>
